<svg width="20" height="20" viewBox="0 0 20 20" fill="none" xmlns="http://www.w3.org/2000/svg">
<path d="M3.0075 1.51166L11.4933 9.99999L3.00833 18.4883C2.85745 18.4249 2.72869 18.3183 2.63824 18.1819C2.5478 18.0454 2.4997 17.8853 2.5 17.7217V2.27832C2.50007 2.11484 2.54821 1.95499 2.63845 1.81867C2.72869 1.68235 2.85703 1.57558 3.0075 1.51166ZM12.0825 10.5892L14.0008 12.5075L4.88667 17.785L12.0825 10.5892ZM14.7483 7.92416L17.0875 9.27916C17.2138 9.35241 17.3186 9.45756 17.3915 9.58406C17.4643 9.71057 17.5027 9.854 17.5027 9.99999C17.5027 10.146 17.4643 10.2894 17.3915 10.4159C17.3186 10.5424 17.2138 10.6476 17.0875 10.7208L14.7475 12.0758L12.6717 9.99999L14.7483 7.92416ZM4.88667 2.21499L14.0017 7.49166L12.0825 9.41082L4.88667 2.21499Z" fill="white"/>
</svg>
