<svg width="20" height="20" viewBox="0 0 20 20" fill="none" xmlns="http://www.w3.org/2000/svg">
<path d="M9.68667 6.01831C8.95667 6.01831 7.82667 5.18831 6.63667 5.21831C5.06667 5.23831 3.62667 6.12831 2.81667 7.53831C1.18667 10.3683 2.39667 14.5483 3.98667 16.8483C4.76667 17.9683 5.68667 19.2283 6.90667 19.1883C8.07667 19.1383 8.51667 18.4283 9.93667 18.4283C11.3467 18.4283 11.7467 19.1883 12.9867 19.1583C14.2467 19.1383 15.0467 18.0183 15.8167 16.8883C16.7067 15.5883 17.0767 14.3283 17.0967 14.2583C17.0667 14.2483 14.6467 13.3183 14.6167 10.5183C14.5967 8.17831 16.5267 7.05831 16.6167 7.00831C15.5167 5.39831 13.8267 5.21831 13.2367 5.17831C11.6967 5.05831 10.4067 6.01831 9.68667 6.01831ZM12.2867 3.65831C12.9367 2.87831 13.3667 1.78831 13.2467 0.708313C12.3167 0.748313 11.1967 1.32831 10.5267 2.10831C9.92667 2.79831 9.40667 3.90831 9.54667 4.96831C10.5767 5.04831 11.6367 4.43831 12.2867 3.65831Z" fill="white"/>
</svg>
