<svg width="58" height="59" viewBox="0 0 58 59" fill="none" xmlns="http://www.w3.org/2000/svg">
<g filter="url(#filter0_d)">
<path d="M38 28C38 28.2652 37.8946 28.5196 37.7071 28.7071C37.5196 28.8946 37.2652 29 37 29H21C20.7348 29 20.4804 28.8946 20.2929 28.7071C20.1054 28.5196 20 28.2652 20 28V17.314C19.9999 17.163 20.0341 17.0138 20.0999 16.8779C20.1657 16.7419 20.2615 16.6227 20.38 16.529L28.38 10.218C28.5565 10.0785 28.775 10.0026 29 10.0026C29.225 10.0026 29.4435 10.0785 29.62 10.218L37.62 16.528C37.7386 16.6218 37.8345 16.7412 37.9003 16.8773C37.9661 17.0135 38.0002 17.1628 38 17.314V28ZM24 20C24 21.3261 24.5268 22.5979 25.4645 23.5355C26.4021 24.4732 27.6739 25 29 25C30.3261 25 31.5979 24.4732 32.5355 23.5355C33.4732 22.5979 34 21.3261 34 20H32C32 20.7956 31.6839 21.5587 31.1213 22.1213C30.5587 22.6839 29.7956 23 29 23C28.2044 23 27.4413 22.6839 26.8787 22.1213C26.3161 21.5587 26 20.7956 26 20H24Z" fill="#EE5B35"/>
</g>
<defs>
<filter id="filter0_d" x="-3" y="-2" width="64" height="64" filterUnits="userSpaceOnUse" color-interpolation-filters="sRGB">
<feFlood flood-opacity="0" result="BackgroundImageFix"/>
<feColorMatrix in="SourceAlpha" type="matrix" values="0 0 0 0 0 0 0 0 0 0 0 0 0 0 0 0 0 0 127 0"/>
<feOffset dy="10"/>
<feGaussianBlur stdDeviation="10"/>
<feColorMatrix type="matrix" values="0 0 0 0 0.886275 0 0 0 0 0.301961 0 0 0 0 0.188235 0 0 0 0.3 0"/>
<feBlend mode="normal" in2="BackgroundImageFix" result="effect1_dropShadow"/>
<feBlend mode="normal" in="SourceGraphic" in2="effect1_dropShadow" result="shape"/>
</filter>
</defs>
</svg>
