<svg width="59" height="64" viewBox="0 0 59 64" fill="none" xmlns="http://www.w3.org/2000/svg">
<g filter="url(#filter0_d)">
<path fill-rule="evenodd" clip-rule="evenodd" d="M22.4386 13.5166C22.5897 13.6683 22.5978 13.9049 22.4573 14.0655C22.3169 14.2264 22.0727 14.2597 21.8909 14.1431C21.7104 14.0274 21.4698 14.0491 21.3148 14.1949L21.3039 14.2061L21.2964 14.2132C21.2346 14.277 21.1934 14.3568 21.1775 14.4425C21.1474 14.5937 21.1953 14.7496 21.3062 14.8609C21.3164 14.8711 21.3832 14.9432 21.4669 15.039L21.5765 15.1623C21.7311 15.1695 21.8847 15.1918 22.0344 15.229C22.6782 15.3905 23.2184 15.81 23.5169 16.3806L24.3259 18.0345C24.4087 17.9323 24.4991 17.8361 24.5966 17.7467V14.1167C24.5966 14.112 24.5979 14.1078 24.5992 14.1035C24.6004 14.0995 24.6016 14.0956 24.6018 14.0912C24.6044 14.0543 24.6121 14.0177 24.6251 13.9828L24.6288 13.9716C24.6318 13.9623 24.6347 13.9532 24.6391 13.944C24.6594 13.9006 24.6874 13.8609 24.7217 13.8267L24.9207 13.6359L24.9077 13.6237L26.1701 12.3897C26.356 12.2068 26.356 11.9145 26.1701 11.7316C25.9893 11.5607 25.6993 11.5607 25.5188 11.7316L24.8872 12.3482C24.7652 12.4671 24.5805 12.5036 24.4196 12.4405C24.2587 12.3773 24.1535 12.2271 24.1533 12.0602V10.4149C24.1602 10.2689 24.083 10.1311 23.9523 10.0562C23.8217 9.98127 23.6587 9.98127 23.528 10.0562C23.3974 10.1311 23.3202 10.2689 23.3271 10.4149V12.0602C23.3271 12.2273 23.2219 12.3777 23.0606 12.4409C22.8995 12.504 22.7146 12.4675 22.5928 12.3482L21.9637 11.7312C21.8778 11.646 21.7595 11.598 21.6361 11.5978C21.5125 11.5978 21.3943 11.646 21.3083 11.7312C21.1236 11.9141 21.1223 12.2046 21.3054 12.3893L22.4386 13.5166ZM29.5599 13.7054L30.8452 12.4715H27.3439L26.0586 13.7054H29.5599ZM29.3087 19.5183L29.3006 19.5129V19.5125C29.2489 18.6479 28.7637 17.8612 27.9991 17.4021C27.2342 16.9428 26.2851 16.8681 25.4526 17.2016V14.5281H29.3087V19.5183ZM24.601 19.7405C24.5984 19.7175 24.5957 19.6944 24.5957 19.6695C24.5934 18.7657 25.2733 17.9931 26.202 17.8443C27.1307 17.6953 28.035 18.2138 28.3388 19.0694C28.2945 19.0806 28.2524 19.0985 28.2141 19.1224L27.1664 19.793L26.1189 19.1216C25.975 19.0294 25.7873 19.0294 25.6434 19.1216L24.6055 19.786C24.6045 19.7705 24.6028 19.7555 24.601 19.7405ZM30.4954 19.3069L30.1655 19.5184V14.2871L31.8793 12.6419L32.7693 13.4962L30.4954 19.3069ZM31.4511 10.8262H27.595V11.6488H31.4511V10.8262ZM35.6412 21.5887L34.5935 20.9175L33.7365 21.4658V33.9974H35.4504C36.1604 33.9974 36.7357 33.445 36.7357 32.7634V21.1927L36.1167 21.5887C35.9728 21.6809 35.7851 21.6809 35.6412 21.5887ZM21.5627 17.6031L20.4488 18.4303L20.3524 18.3163C20.0804 18.0086 19.9572 17.6047 20.0133 17.2046C20.0693 16.8047 20.2993 16.4465 20.6463 16.2187C20.9901 15.9954 21.417 15.9247 21.8189 16.0245C22.2206 16.1245 22.5583 16.3854 22.7457 16.7411L23.8378 18.9748C23.8108 19.071 23.7895 19.1688 23.774 19.2672L23.5482 19.1224C23.4043 19.0302 23.2166 19.0302 23.0727 19.1224L22.025 19.793L21.0744 19.1843L20.9825 19.0736L22.0871 18.2538L21.5627 17.6031ZM29.9752 21.5887C29.8313 21.6809 29.6436 21.6809 29.4997 21.5887L28.452 20.9175L27.4045 21.5879C27.2605 21.6801 27.0729 21.6801 26.9289 21.5879L25.8812 20.9175L24.8337 21.5879C24.6898 21.6801 24.5021 21.6801 24.3582 21.5879L23.3105 20.9175L22.263 21.5879C22.119 21.6801 21.9314 21.6801 21.7875 21.5879L21.1682 21.1927V27.3484C21.1682 28.0506 21.1678 28.6201 21.1675 29.1105V29.1107C21.1669 29.9133 21.1665 30.5044 21.1682 31.12L21.1681 32.08C21.1681 33.52 21.5266 34 23.0266 34H31.8796V21.4666L31.0227 20.9175L29.9752 21.5887ZM36.3745 10.0036C37.0042 10.0026 37.5931 10.3023 37.9457 10.8034C38.325 11.3286 38.4116 11.999 38.1779 12.5975L35.5214 19.3818L34.8787 19.7931L33.8312 19.1225C33.6873 19.0303 33.4996 19.0303 33.3557 19.1225L32.3079 19.7931L31.4387 19.2358L34.5749 11.2229C34.8542 10.4981 35.5697 10.0135 36.3745 10.0036ZM33.613 15.8896L34.4502 18.3575L35.2638 18.1025L34.4272 15.6346L33.613 15.8896ZM34.8684 13.0104L35.7057 15.4783L36.5193 15.2232L35.6825 12.7553L34.8684 13.0104Z" fill="white"/>
</g>
<defs>
<filter id="filter0_d" x="0" y="0" width="58.3071" height="64" filterUnits="userSpaceOnUse" color-interpolation-filters="sRGB">
<feFlood flood-opacity="0" result="BackgroundImageFix"/>
<feColorMatrix in="SourceAlpha" type="matrix" values="0 0 0 0 0 0 0 0 0 0 0 0 0 0 0 0 0 0 127 0"/>
<feOffset dy="10"/>
<feGaussianBlur stdDeviation="10"/>
<feColorMatrix type="matrix" values="0 0 0 0 0.952941 0 0 0 0 0.694118 0 0 0 0 0 0 0 0 0.3 0"/>
<feBlend mode="normal" in2="BackgroundImageFix" result="effect1_dropShadow"/>
<feBlend mode="normal" in="SourceGraphic" in2="effect1_dropShadow" result="shape"/>
</filter>
</defs>
</svg>
