<svg width="32" height="32" viewBox="0 0 32 32" fill="none" xmlns="http://www.w3.org/2000/svg">
<circle opacity="0.05" cx="16" cy="16" r="16" fill="#18464F"/>
<path fill-rule="evenodd" clip-rule="evenodd" d="M8.91666 16.0001C8.91666 14.5282 8.91666 13.7923 9.05664 13.1838C9.52875 11.1314 11.1313 9.52884 13.1837 9.05673C13.7922 8.91675 14.5281 8.91675 16 8.91675C17.4718 8.91675 18.2078 8.91675 18.8163 9.05673C20.8687 9.52884 22.4712 11.1314 22.9433 13.1838C23.0833 13.7923 23.0833 14.5282 23.0833 16.0001C23.0833 17.4719 23.0833 18.2079 22.9433 18.8164C22.4712 20.8687 20.8687 22.4713 18.8163 22.9434C18.2078 23.0834 17.4718 23.0834 16 23.0834C14.5281 23.0834 13.7922 23.0834 13.1837 22.9434C11.1313 22.4713 9.52875 20.8687 9.05664 18.8164C8.91666 18.2079 8.91666 17.4719 8.91666 16.0001ZM16 12.2501C13.9291 12.2501 12.25 13.9291 12.25 16.0001C12.25 18.071 13.9291 19.7501 16 19.7501C18.0709 19.7501 19.75 18.071 19.75 16.0001C19.75 13.9291 18.0709 12.2501 16 12.2501ZM16 18.3438C14.7081 18.3438 13.6562 17.292 13.6562 16.0001C13.6562 14.7073 14.7081 13.6563 16 13.6563C17.2919 13.6563 18.3437 14.7073 18.3437 16.0001C18.3437 17.292 17.2919 18.3438 16 18.3438ZM20.5309 11.9688C20.5309 12.2448 20.3072 12.4685 20.0312 12.4685C19.7553 12.4685 19.5316 12.2448 19.5316 11.9688C19.5316 11.6928 19.7553 11.4691 20.0312 11.4691C20.3072 11.4691 20.5309 11.6928 20.5309 11.9688Z" fill="#18464F"/>
</svg>
