<svg width="160" height="30" viewBox="0 0 160 30" fill="none" xmlns="http://www.w3.org/2000/svg">
<path fill-rule="evenodd" clip-rule="evenodd" d="M7.07883 14.5463C7.27701 14.5463 7.47327 14.5085 7.65637 14.4351C7.83945 14.3617 8.00577 14.2541 8.14581 14.1185C8.28583 13.9829 8.39685 13.8219 8.47247 13.6448C8.5481 13.4677 8.58685 13.2779 8.58655 13.0863C8.58655 7.47086 11.9868 2.91766 16.1664 2.91766C20.3459 2.91766 23.7462 7.48019 23.7462 13.0863C23.738 13.2827 23.7711 13.4788 23.8432 13.6627C23.9154 13.8465 24.0252 14.0144 24.1661 14.1562C24.3071 14.298 24.4762 14.4108 24.6633 14.4879C24.8504 14.565 25.0517 14.6047 25.2551 14.6047C25.4586 14.6047 25.6599 14.565 25.847 14.4879C26.0341 14.4108 26.2032 14.298 26.3441 14.1562C26.485 14.0144 26.5949 13.8465 26.6671 13.6627C26.7392 13.4788 26.7722 13.2827 26.7641 13.0863C26.7641 5.87045 22.011 0 16.1664 0C10.3218 0 5.57108 5.87045 5.57108 13.0863C5.57077 13.2779 5.60953 13.4677 5.68515 13.6448C5.76077 13.8219 5.8718 13.9829 6.01184 14.1185C6.15186 14.2541 6.31818 14.3617 6.50128 14.4351C6.68436 14.5085 6.88062 14.5463 7.07883 14.5463ZM32.248 17.9623C32.248 17.7709 32.209 17.5814 32.1333 17.4045C32.0575 17.2277 31.9464 17.067 31.8064 16.9316C31.6664 16.7962 31.5002 16.6889 31.3173 16.6156C31.1344 16.5424 30.9383 16.5047 30.7403 16.5047H1.57059C1.36737 16.4968 1.16458 16.5287 0.974396 16.5985C0.78421 16.6682 0.610596 16.7744 0.463898 16.9107C0.31723 17.0469 0.200531 17.2104 0.120819 17.3913C0.0411072 17.5722 0 17.7668 0 17.9635C0 18.1602 0.0411072 18.3548 0.120819 18.5357C0.200531 18.7166 0.31723 18.8801 0.463898 19.0163C0.610596 19.1526 0.78421 19.2588 0.974396 19.3285C1.16458 19.3983 1.36737 19.4302 1.57059 19.4223H30.7403C31.1404 19.4217 31.5239 19.2676 31.8066 18.9939C32.0893 18.7202 32.248 18.3492 32.248 17.9623ZM3.80197 21.3807C3.60397 21.3807 3.4079 21.4184 3.22498 21.4916C3.04205 21.5649 2.87582 21.6723 2.73584 21.8076C2.59583 21.943 2.48477 22.1037 2.409 22.2805C2.33322 22.4574 2.29422 22.6469 2.29422 22.8383C2.29422 23.0298 2.33322 23.2193 2.409 23.3962C2.48477 23.573 2.59583 23.7337 2.73584 23.8691C2.87582 24.0044 3.04205 24.1118 3.22498 24.1851C3.4079 24.2583 3.60397 24.296 3.80197 24.296H28.5089C28.9088 24.296 29.2923 24.1424 29.5751 23.8691C29.8578 23.5957 30.0167 23.2249 30.0167 22.8383C30.0167 22.4518 29.8578 22.081 29.5751 21.8076C29.2923 21.5342 28.9088 21.3807 28.5089 21.3807H3.80197ZM26.9613 28.7451C26.6786 29.0185 26.2951 29.1721 25.8952 29.1721H6.41324C6.01337 29.1721 5.62988 29.0185 5.34711 28.7451C5.06436 28.4718 4.90552 28.101 4.90552 27.7144C4.90552 27.3278 5.06436 26.9571 5.34711 26.6837C5.62988 26.4103 6.01337 26.2567 6.41324 26.2567H25.8952C26.2951 26.2567 26.6786 26.4103 26.9613 26.6837C27.2441 26.9571 27.403 27.3278 27.403 27.7144C27.403 28.101 27.2441 28.4718 26.9613 28.7451ZM93.0263 12.3017C92.5331 11.7718 91.9242 11.349 91.2415 11.0621C90.5588 10.7753 89.8184 10.6313 89.0711 10.64C88.6103 10.6369 88.1527 10.7136 87.7211 10.8661C87.3178 11.0061 86.9346 11.193 86.5802 11.4224C86.2611 11.623 85.9731 11.8647 85.7245 12.1402C85.5845 12.2943 85.4633 12.4629 85.3632 12.6426V8.50089C85.364 8.32065 85.3252 8.14221 85.2491 7.9769C85.1736 7.81674 85.0679 7.67084 84.9373 7.5462C84.8069 7.42288 84.6517 7.32529 84.4809 7.25906C84.2975 7.18317 84.0994 7.14404 83.8991 7.14423C83.7047 7.14301 83.5121 7.17838 83.3324 7.24832C83.0733 7.35065 82.8522 7.52332 82.6971 7.74438C82.5421 7.96545 82.4601 8.22501 82.4615 8.49011V20.6462C82.4594 20.825 82.495 21.0024 82.5661 21.1682C82.6373 21.3339 82.7426 21.4846 82.8761 21.6116C83.0055 21.7361 83.1609 21.8339 83.3324 21.8988C83.5116 21.9703 83.7046 22.0058 83.8991 22.0028C84.0898 22.0047 84.2788 21.9693 84.4543 21.8988C84.6259 21.8339 84.7812 21.7361 84.9107 21.6116C85.0413 21.487 85.1469 21.3411 85.2225 21.1809C85.2997 21.0121 85.3385 20.83 85.3366 20.6462V16.5403C85.3378 16.1293 85.427 15.7228 85.599 15.3452C85.7699 14.9585 86.0105 14.6027 86.3102 14.2936C86.6079 13.9844 86.9638 13.7301 87.3598 13.5435C87.7436 13.3662 88.1639 13.2708 88.5911 13.264C89.0183 13.2572 89.4419 13.3391 89.8318 13.504C90.1923 13.6602 90.5157 13.8836 90.7825 14.1608C91.056 14.4425 91.2691 14.7716 91.41 15.1299C91.5627 15.5067 91.6401 15.9071 91.6382 16.3106V20.4739C91.6373 20.6686 91.6681 20.8623 91.7294 21.0482C91.7856 21.2249 91.8759 21.3904 91.9957 21.5363C92.1133 21.6862 92.2654 21.8089 92.4406 21.8952C92.6285 21.9794 92.8333 22.0247 93.0413 22.0277C93.2493 22.0309 93.4556 21.9918 93.6461 21.9131C93.8196 21.8414 93.976 21.7377 94.1063 21.608C94.2336 21.4797 94.3342 21.33 94.403 21.1666C94.4748 21.0027 94.5123 20.8272 94.5132 20.6498V16.2999C94.5229 15.55 94.3943 14.8044 94.1329 14.0962C93.8857 13.4382 93.5104 12.8296 93.0263 12.3017ZM60.271 15.0586L63.4237 19.8285C63.5976 20.0178 63.7087 20.2512 63.7431 20.4996C63.776 20.7279 63.7459 20.9603 63.6557 21.1744C63.5657 21.3867 63.4174 21.5726 63.226 21.7127C63.0208 21.8652 62.7715 21.9553 62.511 21.9711C62.3857 21.9973 62.2559 21.9973 62.1307 21.9711C62.007 21.9473 61.8878 21.9061 61.777 21.8491C61.667 21.7916 61.5648 21.7217 61.4727 21.641C61.3833 21.5638 61.2995 21.481 61.2218 21.3933L58.0539 16.5983C57.7369 16.8352 57.4403 17.0542 57.1639 17.2551L56.3843 17.8186C56.141 17.9945 55.909 18.1632 55.6922 18.3282L55.0343 18.8164V20.6575C55.0336 20.8372 54.9952 21.0151 54.9215 21.1808C54.8477 21.3464 54.74 21.4967 54.6045 21.623C54.4751 21.7475 54.3197 21.8453 54.1482 21.9101C53.974 21.9807 53.7862 22.0161 53.5967 22.0142C53.401 22.0171 53.2068 21.9817 53.0263 21.9101C52.8553 21.8444 52.7 21.7467 52.5699 21.623C52.4392 21.4999 52.3358 21.3535 52.2657 21.1923C52.1916 21.0228 52.1541 20.8409 52.1554 20.6575V8.50146C52.1552 8.32166 52.1927 8.14355 52.2657 7.97748C52.3358 7.81628 52.4392 7.66989 52.5699 7.54678C52.701 7.42426 52.856 7.32675 53.0263 7.25967C53.2073 7.18973 53.4012 7.15436 53.5967 7.15558C53.786 7.1554 53.9735 7.19077 54.1482 7.25967C54.319 7.32587 54.4741 7.42346 54.6045 7.54678C54.7375 7.66953 54.8435 7.81592 54.9164 7.97748C54.9936 8.14258 55.0338 8.32098 55.0343 8.50146V15.4965L60.4916 11.5055C60.702 11.35 60.934 11.1992 61.1875 11.0533C61.4254 10.9055 61.6731 10.7725 61.9291 10.6549C62.0522 10.6153 62.1799 10.59 62.3094 10.5795C62.4477 10.5699 62.5867 10.5832 62.7202 10.619C62.9228 10.6779 63.1078 10.7812 63.2602 10.9205C63.4236 11.0602 63.5443 11.2386 63.61 11.4373C63.6649 11.6082 63.6893 11.7865 63.6823 11.9649C63.6737 12.0898 63.6388 12.2118 63.5796 12.3238C63.516 12.4509 63.4382 12.5712 63.3476 12.6827C63.2888 12.7519 63.2272 12.819 63.1629 12.8837C63.1241 12.9228 63.0842 12.9611 63.0434 12.9985C62.9407 13.0924 62.8328 13.181 62.7202 13.2641L60.271 15.0586ZM50.1931 10.7835C50.3667 10.8564 50.5232 10.9614 50.6533 11.0922C50.7823 11.2171 50.882 11.3663 50.9461 11.53C51.0063 11.6938 51.0347 11.8664 51.0298 12.0397C51.0267 12.221 50.9826 12.3997 50.9005 12.5637L46.6981 21.2491C46.5739 21.5031 46.3657 21.7122 46.1049 21.8449C45.8636 21.9747 45.5872 22.0346 45.31 22.0172C45.0504 22.037 44.7914 21.9724 44.576 21.8341C44.343 21.6917 44.1541 21.4935 44.0284 21.2599L39.8451 12.5995C39.7564 12.4368 39.7046 12.2583 39.693 12.0756C39.681 11.9007 39.7042 11.7254 39.7614 11.5587C39.8158 11.3932 39.9065 11.2404 40.0276 11.1101C40.1563 10.9717 40.3144 10.8604 40.4916 10.7835C40.6635 10.6988 40.8531 10.651 41.0468 10.6435C41.2303 10.6355 41.4137 10.6611 41.5869 10.7189C41.7616 10.7785 41.9228 10.8687 42.0623 10.9845C42.2108 11.1031 42.3312 11.2498 42.4159 11.4152L45.329 18.0728L48.2764 11.4152C48.3495 11.249 48.4598 11.0996 48.5996 10.9773C48.7374 10.8584 48.899 10.7669 49.075 10.7081C49.2531 10.6492 49.4421 10.626 49.6302 10.6399C49.8264 10.6504 50.0181 10.6993 50.1931 10.7835ZM74.1938 12.3304C73.6453 11.8171 73.0005 11.4046 72.2923 11.1137C71.5538 10.8175 70.7597 10.6649 69.9573 10.6649C69.1549 10.6649 68.3607 10.8175 67.6222 11.1137C66.9135 11.4037 66.2685 11.8163 65.7207 12.3304C65.1714 12.8452 64.7313 13.4543 64.4239 14.1249C64.1055 14.8192 63.9436 15.5684 63.9485 16.325C63.9445 17.0849 64.1063 17.8375 64.4239 18.5358C64.7307 19.2067 65.1709 19.8159 65.7207 20.3303C66.2685 20.8444 66.9135 21.257 67.6222 21.547C68.3607 21.8432 69.1549 21.9958 69.9573 21.9958C70.7597 21.9958 71.5538 21.8432 72.2923 21.547C73.0005 21.2562 73.6453 20.8436 74.1938 20.3303C74.7436 19.8159 75.1838 19.2067 75.4906 18.5358C75.8083 17.8375 75.9701 17.0849 75.966 16.325C75.9709 15.5684 75.809 14.8192 75.4906 14.1249C75.1833 13.4543 74.7431 12.8452 74.1938 12.3304ZM72.8209 17.5237C72.666 17.8838 72.4417 18.2136 72.1592 18.4963C71.8779 18.7728 71.542 18.9948 71.1704 19.1495C70.7856 19.3131 70.3679 19.3964 69.9459 19.3936C69.5215 19.3956 69.1014 19.3124 68.7137 19.1495C68.3405 18.9956 68.0031 18.7737 67.7211 18.4963C67.4373 18.2152 67.2139 17.8849 67.0632 17.5237C66.9034 17.1447 66.8233 16.74 66.8274 16.3322C66.8244 15.929 66.9044 15.5292 67.0632 15.1549C67.3638 14.4275 67.9572 13.8417 68.7137 13.5255C69.1022 13.3652 69.5219 13.2833 69.9459 13.2851C70.3674 13.2829 70.7848 13.3649 71.1704 13.5255C71.5414 13.6829 71.877 13.9059 72.1592 14.1823C72.4417 14.4651 72.666 14.7949 72.8209 15.1549C72.984 15.5282 73.0667 15.9284 73.0643 16.3322C73.0677 16.7406 72.985 17.1457 72.8209 17.5237ZM79.4572 7.25967C79.628 7.32587 79.7831 7.42346 79.9135 7.54678C80.0442 7.67142 80.1498 7.81735 80.2254 7.97748C80.3014 8.14282 80.3402 8.32123 80.3395 8.50146V20.6575C80.3414 20.8414 80.3025 21.0235 80.2254 21.1923C80.1498 21.3524 80.0442 21.4984 79.9135 21.623C79.7841 21.7475 79.6287 21.8452 79.4572 21.9101C79.2817 21.9807 79.0927 22.0161 78.9019 22.0142C78.7075 22.0168 78.5145 21.9814 78.3353 21.9101C78.1637 21.8452 78.0083 21.7475 77.8789 21.623C77.7482 21.4999 77.6448 21.3535 77.5747 21.1923C77.5006 21.0228 77.4631 20.8409 77.4644 20.6575V8.50146C77.4642 8.32166 77.5017 8.14359 77.5747 7.97748C77.645 7.81641 77.7484 7.67004 77.879 7.54684C78.0095 7.42368 78.1646 7.32605 78.3353 7.25967C78.515 7.19009 78.7076 7.15472 78.9019 7.15558C79.0925 7.1554 79.2812 7.19077 79.4572 7.25967ZM104.352 11.1137C105.06 11.4037 105.705 11.8163 106.253 12.3304C106.804 12.8449 107.245 13.454 107.554 14.1249C107.872 14.8192 108.034 15.5684 108.029 16.325C108.033 17.0849 107.871 17.8375 107.554 18.5358C107.245 19.2067 106.804 19.8158 106.253 20.3303C105.705 20.8444 105.06 21.257 104.352 21.547C103.614 21.8431 102.82 21.9957 102.018 21.9957C101.217 21.9957 100.423 21.8431 99.6853 21.547C98.9766 21.257 98.3316 20.8444 97.7838 20.3303C97.234 19.8159 96.7938 19.2067 96.487 18.5358C96.1676 17.838 96.0057 17.0851 96.0116 16.325C96.0045 15.5682 96.1665 14.8186 96.487 14.1249C96.7944 13.4543 97.2345 12.8452 97.7838 12.3304C98.3316 11.8163 98.9766 11.4037 99.6853 11.1137C100.423 10.8176 101.217 10.665 102.018 10.665C102.82 10.665 103.614 10.8176 104.352 11.1137ZM104.219 18.4963C104.503 18.2147 104.729 17.8846 104.884 17.5237C105.048 17.1457 105.131 16.7406 105.127 16.3322C105.13 15.9284 105.047 15.5282 104.884 15.1549C104.729 14.794 104.503 14.464 104.219 14.1823C103.938 13.9052 103.604 13.6821 103.234 13.5255C102.846 13.3669 102.428 13.285 102.005 13.285C101.583 13.285 101.165 13.3669 100.777 13.5255C100.404 13.6819 100.067 13.905 99.7842 14.1823C99.4992 14.4625 99.2756 14.793 99.1263 15.1549C98.9662 15.529 98.8849 15.9288 98.8867 16.3322C98.8839 16.7402 98.9652 17.145 99.1263 17.5237C99.2756 17.8856 99.4992 18.2162 99.7842 18.4963C100.066 18.7737 100.404 18.9956 100.777 19.1495C101.164 19.3107 101.582 19.394 102.005 19.394C102.428 19.394 102.847 19.3107 103.234 19.1495C103.605 18.9959 103.94 18.7738 104.219 18.4963ZM119.993 19.6736C119.656 19.4626 119.256 19.3606 118.852 19.3828H113.083L118.788 13.9526C119.008 13.7373 119.187 13.5507 119.332 13.3892C119.455 13.2531 119.564 13.1065 119.659 12.9513C119.73 12.8387 119.786 12.7182 119.826 12.5924C119.857 12.475 119.872 12.3545 119.872 12.2335C119.873 12.0574 119.837 11.8829 119.765 11.7202C119.693 11.5579 119.59 11.4095 119.461 11.2824C119.325 11.1538 119.164 11.0525 118.986 10.9845C118.791 10.9104 118.583 10.8727 118.373 10.8732H110.954C110.546 10.8529 110.146 10.9814 109.836 11.2321C109.699 11.3505 109.591 11.495 109.519 11.6559C109.447 11.8169 109.412 11.9906 109.417 12.1653C109.413 12.3417 109.458 12.5161 109.546 12.6714C109.631 12.812 109.747 12.9343 109.885 13.0302C110.036 13.1345 110.206 13.2112 110.387 13.2563C110.587 13.3063 110.793 13.3305 110.999 13.3282L115.943 13.3066L109.478 19.1245C109.171 19.3684 108.962 19.704 108.885 20.0755C108.822 20.3969 108.854 20.7282 108.976 21.0338C109.067 21.2947 109.26 21.513 109.516 21.644C109.768 21.7766 110.053 21.8446 110.341 21.8413H118.982C119.165 21.8416 119.347 21.81 119.518 21.748C119.687 21.687 119.843 21.597 119.978 21.4825C120.111 21.3675 120.219 21.2299 120.298 21.0769C120.382 20.9101 120.424 20.7269 120.419 20.5421C120.428 20.3756 120.393 20.2097 120.319 20.0585C120.245 19.9073 120.133 19.7752 119.993 19.6736ZM129.337 11.0778C130.037 11.3431 130.676 11.7331 131.22 12.2263C131.764 12.7245 132.197 13.3199 132.494 13.9777C132.807 14.672 132.965 15.4197 132.958 16.1742C132.978 16.3179 132.96 16.4641 132.904 16.599C132.848 16.734 132.757 16.8534 132.638 16.9459C132.303 17.1043 131.928 17.1726 131.554 17.1432H123.853C123.885 17.4945 123.991 17.8362 124.165 18.1482C124.336 18.4629 124.564 18.747 124.838 18.988C125.119 19.2303 125.44 19.4268 125.789 19.5695C126.15 19.7142 126.538 19.7887 126.93 19.7884C127.319 19.789 127.706 19.7246 128.071 19.5982C128.432 19.4741 128.765 19.2892 129.056 19.0526C129.242 18.9553 129.451 18.9035 129.664 18.9019C129.898 18.8931 130.13 18.9285 130.349 19.006C130.566 19.0765 130.759 19.2004 130.908 19.3649C131.067 19.5472 131.15 19.7784 131.14 20.0145C131.138 20.1675 131.104 20.3186 131.038 20.4586C130.973 20.5987 130.878 20.7248 130.76 20.8292C130.47 21.0945 130.131 21.3073 129.759 21.4573C129.322 21.6396 128.864 21.7745 128.394 21.8593C127.904 21.9586 127.405 22.0103 126.903 22.0136C126.102 22.0196 125.307 21.8668 124.572 21.5649C123.864 21.2749 123.22 20.8636 122.671 20.3519C122.119 19.8378 121.678 19.2285 121.37 18.5573C121.052 17.8603 120.891 17.1089 120.895 16.3501C120.885 15.5639 121.053 14.7848 121.385 14.0639C121.694 13.3868 122.146 12.7762 122.712 12.2693C123.582 11.4958 124.667 10.9727 125.841 10.7616C127.014 10.5505 128.228 10.6602 129.337 11.0778ZM124.188 14.4192C123.996 14.7309 123.874 15.0767 123.831 15.4349H130.052C130.022 15.0799 129.916 14.7343 129.74 14.4192C129.571 14.113 129.344 13.8382 129.071 13.6081C128.794 13.3768 128.476 13.1933 128.132 13.0661C127.776 12.9362 127.398 12.8705 127.017 12.8723C126.628 12.8714 126.241 12.9371 125.877 13.0661C125.163 13.3162 124.565 13.7952 124.188 14.4192ZM136.38 19.5695C136.087 19.3069 135.697 19.1615 135.293 19.1639C135.083 19.1622 134.875 19.1987 134.681 19.2716C134.5 19.3412 134.335 19.4422 134.194 19.5695C134.056 19.7004 133.946 19.8551 133.87 20.0253C133.718 20.3897 133.718 20.795 133.87 21.1594C133.947 21.327 134.057 21.4792 134.194 21.608C134.335 21.7353 134.5 21.8363 134.681 21.9059C134.875 21.9788 135.083 22.0153 135.293 22.0136C135.697 22.016 136.087 21.8706 136.38 21.608C136.527 21.4766 136.643 21.3185 136.723 21.1433C136.803 20.9681 136.844 20.7794 136.844 20.5887C136.844 20.3981 136.803 20.2094 136.723 20.0342C136.643 19.859 136.527 19.7009 136.38 19.5695ZM144.546 10.744C144.894 10.7734 145.238 10.8434 145.569 10.9522C145.885 11.0499 146.173 11.2158 146.409 11.4367C146.518 11.541 146.603 11.6652 146.659 11.8015C146.715 11.9379 146.742 12.0837 146.736 12.2299C146.74 12.4357 146.679 12.6379 146.561 12.8113C146.453 12.9751 146.304 13.1117 146.128 13.2097C145.96 13.3042 145.774 13.3641 145.58 13.3856C145.32 13.4046 145.06 13.4046 144.8 13.3856C144.53 13.3784 144.257 13.364 143.979 13.3461C143.696 13.3248 143.411 13.3578 143.142 13.443C142.871 13.5247 142.614 13.6458 142.382 13.8019C142.148 13.9651 141.943 14.1613 141.773 14.3833C141.593 14.6186 141.447 14.8757 141.34 15.1478C141.225 15.4366 141.151 15.7382 141.119 16.045V20.6677C141.121 20.8516 141.082 21.0337 141.005 21.2025C140.931 21.3633 140.825 21.5095 140.693 21.6332C140.564 21.7577 140.408 21.8554 140.237 21.9203C140.061 21.9912 139.872 22.0267 139.681 22.0244C139.487 22.027 139.294 21.9916 139.115 21.9203C138.943 21.8554 138.788 21.7577 138.658 21.6332C138.528 21.5101 138.424 21.3637 138.354 21.2025C138.28 21.033 138.243 20.8511 138.244 20.6677V11.4116C138.229 11.3133 138.239 11.2132 138.271 11.1189C138.304 11.0246 138.359 10.9386 138.433 10.8676C138.506 10.7965 138.596 10.7423 138.695 10.709C138.794 10.6758 138.9 10.6645 139.005 10.6758C139.295 10.6718 139.575 10.7763 139.784 10.9666C140.053 11.2595 140.223 11.6222 140.271 12.0074L140.381 12.4453C140.437 12.3856 140.497 12.3252 140.56 12.2639C140.609 12.2172 140.659 12.1699 140.712 12.1222C140.953 11.9062 141.214 11.7104 141.492 11.5372C141.796 11.3469 142.118 11.1835 142.454 11.0491C142.813 10.9035 143.19 10.801 143.576 10.744C143.898 10.7157 144.223 10.7157 144.546 10.744ZM159.929 11.4798C159.82 11.234 159.635 11.0248 159.398 10.8795C159.161 10.7343 158.884 10.6595 158.601 10.6651C158.414 10.6628 158.228 10.696 158.054 10.7625C157.88 10.8291 157.723 10.9277 157.59 11.0527C157.46 11.1764 157.354 11.321 157.278 11.4798C157.201 11.6461 157.162 11.8259 157.164 12.0074V16.3142C157.164 16.7168 157.072 17.1147 156.894 17.4807C156.72 17.8481 156.475 18.1816 156.171 18.4641C155.864 18.7477 155.506 18.9774 155.114 19.1424C154.725 19.3102 154.302 19.3971 153.874 19.3972C153.457 19.4015 153.044 19.3181 152.665 19.1532C152.306 18.9951 151.984 18.7734 151.714 18.5C151.443 18.2151 151.23 17.8853 151.087 17.5273C150.936 17.1462 150.86 16.7425 150.862 16.3358V12.0289C150.863 11.8499 150.824 11.6726 150.748 11.5085C150.672 11.3478 150.566 11.2009 150.436 11.0742C150.305 10.9521 150.15 10.8546 149.98 10.7871C149.8 10.7187 149.607 10.6845 149.413 10.6866C149.215 10.6826 149.019 10.7219 148.839 10.8015C148.672 10.8751 148.52 10.9759 148.39 11.0994C148.258 11.2207 148.156 11.3677 148.09 11.53C148.023 11.6887 147.988 11.858 147.987 12.0289V16.3322C147.976 17.0844 148.105 17.8328 148.368 18.543C148.615 19.2041 148.996 19.8135 149.489 20.3376C149.976 20.8502 150.569 21.2631 151.231 21.5506C151.941 21.8573 152.714 22.0117 153.494 22.0029C153.934 22.002 154.373 21.9477 154.798 21.8413C155.237 21.734 155.664 21.5861 156.072 21.3999C156.483 21.2126 156.872 20.9852 157.232 20.7216C157.453 20.5569 157.662 20.3795 157.86 20.1904L157.982 20.6821C158.031 21.0675 158.202 21.4301 158.472 21.7229C158.677 21.9076 158.949 22.0116 159.233 22.0136C159.337 22.025 159.443 22.0136 159.542 21.9804C159.641 21.9472 159.731 21.893 159.804 21.8219C159.878 21.7509 159.933 21.6649 159.966 21.5706C159.999 21.4763 160.008 21.3762 159.993 21.2779V12.0074C160.009 11.8292 159.987 11.6498 159.929 11.4798Z" fill="#18464F"/>
</svg>
