<svg width="144" height="18" viewBox="0 0 144 18" fill="none" xmlns="http://www.w3.org/2000/svg">
<path opacity="0.2" d="M5.77564 6.818C6.73697 6.818 7.55831 7.17267 8.23964 7.882C8.92097 8.59133 9.26164 9.464 9.26164 10.5C9.26164 11.5267 8.92097 12.3993 8.23964 13.118C7.55831 13.8273 6.73697 14.182 5.77564 14.182C4.71164 14.182 3.89497 13.7853 3.32564 12.992V14H1.81364V4.2H3.32564V7.994C3.89497 7.21 4.71164 6.818 5.77564 6.818ZM3.95564 12.11C4.37564 12.53 4.90297 12.74 5.53764 12.74C6.17231 12.74 6.69964 12.53 7.11964 12.11C7.53964 11.6807 7.74964 11.144 7.74964 10.5C7.74964 9.856 7.53964 9.324 7.11964 8.904C6.69964 8.47467 6.17231 8.26 5.53764 8.26C4.90297 8.26 4.37564 8.47467 3.95564 8.904C3.53564 9.324 3.32564 9.856 3.32564 10.5C3.32564 11.144 3.53564 11.6807 3.95564 12.11ZM15.3266 7H16.9366L14.2486 14.224C13.5766 16.0347 12.4379 16.8933 10.8326 16.8V15.386C11.3086 15.414 11.6912 15.3113 11.9806 15.078C12.2699 14.854 12.5079 14.4993 12.6946 14.014L12.7646 13.874L9.79656 7H11.4486L13.5346 12.082L15.3266 7Z" fill="#18464F"/>
<g opacity="0.2">
<path fill-rule="evenodd" clip-rule="evenodd" d="M35.0463 0C36.3939 0 37.5844 0.257628 38.618 0.772886C39.6515 1.28814 40.4513 2.02478 41.0174 2.98279C41.583 3.94053 41.8661 5.05235 41.8666 6.31823C41.8672 7.58412 41.5841 8.69127 41.0174 9.63968C40.4521 10.5881 39.6518 11.3202 38.6163 11.836C37.5809 12.3518 36.3909 12.6093 35.0463 12.6085H32.0436V17.3797H28V9.21786H34.669C35.6207 9.21786 36.3755 8.9557 36.9335 8.43138C37.4914 7.90705 37.7699 7.20214 37.7688 6.31664C37.7688 5.41247 37.4904 4.69836 36.9335 4.1743C36.3766 3.65025 35.6218 3.38809 34.669 3.38782H28V0H35.0463ZM56.8826 3.4422V17.3797H53.5128L53.1621 15.7004C52.6976 16.262 52.1194 16.7231 51.4641 17.0547C50.817 17.3799 50.0261 17.5425 49.0916 17.5425C47.474 17.5425 46.153 17.0408 45.1287 16.0375C44.1044 15.0342 43.5923 13.3575 43.5923 11.0075V3.4422H47.3936V10.5465C47.3936 11.8096 47.6139 12.7652 48.0539 13.4074C48.494 14.0495 49.1727 14.3698 50.0892 14.3698C51.0409 14.3698 51.7778 14.0128 52.2998 13.299C52.8219 12.5852 53.0825 11.5864 53.0817 10.3026V3.4422H56.8826ZM59.1202 3.4422H70.8471V6.04515L63.9187 14.1531H71.1706V17.3797H58.7967V14.7756L65.7247 6.66849H59.1202V3.4422ZM73.2193 3.4422H84.9462V6.04515L78.0162 14.1531H85.268V17.3797H72.8958V14.7756L79.8242 6.66849H73.2193V3.4422ZM87.1842 0H90.9863V17.3797H87.1854V0H87.1842ZM92.818 10.4382C92.818 8.99208 93.1102 7.73126 93.6945 6.6557C94.2789 5.58013 95.0966 4.7486 96.1479 4.16111C97.1982 3.57468 98.4159 3.28147 99.8007 3.28147C101.203 3.28147 102.438 3.55722 103.507 4.10873C104.552 4.63695 105.422 5.44575 106.015 6.44058C106.617 7.44418 106.933 8.6241 106.944 9.97915C106.951 10.4153 106.915 10.8511 106.837 11.2806H96.7813V11.3894C96.7748 12.2783 97.123 13.1345 97.7516 13.7752C98.3076 14.3531 99.0714 14.6423 100.043 14.6429C100.816 14.6429 101.458 14.4757 101.971 14.1415C102.482 13.8076 102.82 13.3142 102.982 12.6621H106.73C106.593 13.5654 106.232 14.422 105.678 15.1562C105.123 15.8967 104.383 16.4817 103.468 16.9055C102.553 17.3294 101.5 17.5429 100.314 17.5429C98.768 17.5429 97.4334 17.2537 96.3102 16.6752C95.1869 16.0968 94.3243 15.2705 93.7223 14.1962C93.1211 13.1217 92.8199 11.8698 92.8188 10.4406L92.818 10.4382ZM103.144 8.78443C103.018 7.93491 102.672 7.27944 102.106 6.81803C101.539 6.35662 100.825 6.12618 99.9622 6.12671C99.1359 6.12671 98.4394 6.36661 97.8727 6.84642C97.3061 7.32622 96.9692 7.97263 96.862 8.78563L103.144 8.78443Z" fill="#18464F"/>
<path fill-rule="evenodd" clip-rule="evenodd" d="M110.505 0.572679H111.742C112.071 0.566043 112.397 0.642604 112.687 0.794989C112.954 0.936865 113.173 1.15194 113.318 1.41394C113.464 1.69455 113.54 2.00503 113.54 2.31997C113.54 2.63492 113.464 2.94539 113.318 3.22601C113.173 3.4878 112.954 3.70271 112.687 3.84455C112.397 3.99694 112.071 4.0735 111.742 4.06686H110.505V0.572679ZM111.742 3.44272C112.065 3.44272 112.315 3.34049 112.493 3.13604C112.671 2.93159 112.76 2.65943 112.761 2.31957C112.761 1.98051 112.672 1.70862 112.493 1.5039C112.315 1.29919 112.065 1.19683 111.742 1.19683H111.269V3.44272H111.742ZM114.18 0.572679H114.944V4.06686H114.18V0.572679ZM115.579 2.31957C115.579 1.96372 115.65 1.65184 115.792 1.38395C115.929 1.12198 116.142 0.905712 116.404 0.762602C116.671 0.616262 116.984 0.542958 117.342 0.542691C117.604 0.538628 117.864 0.593333 118.101 0.702627C118.318 0.803676 118.505 0.958416 118.643 1.15164C118.782 1.34903 118.869 1.57729 118.895 1.81578H118.141C118.102 1.63323 118.002 1.46888 117.856 1.34916C117.704 1.23116 117.515 1.17006 117.321 1.17683C117.139 1.17268 116.959 1.22317 116.807 1.32158C116.657 1.42183 116.541 1.56218 116.471 1.72581C116.39 1.91353 116.35 2.11581 116.354 2.31957C116.354 2.66263 116.439 2.93892 116.611 3.14844C116.782 3.35795 117.019 3.46271 117.321 3.46271C117.531 3.46626 117.736 3.40421 117.907 3.28558C118.076 3.16776 118.178 2.99383 118.212 2.76379V2.71901H117.326V2.12525H118.924V4.06686H118.394L118.313 3.63264C118.2 3.77467 118.055 3.88911 117.89 3.9669C117.698 4.05675 117.487 4.10125 117.274 4.09685C116.963 4.10299 116.656 4.02704 116.385 3.87694C116.129 3.73047 115.922 3.51364 115.79 3.25319C115.644 2.96304 115.572 2.64287 115.578 2.31957H115.579ZM119.706 0.572679H120.47V4.06686H119.706V0.572679ZM121.052 0.572679H123.873V1.21682H122.845V4.06686H122.081V1.21682H121.052V0.572679ZM123.668 4.06686H124.458L124.732 3.30317H126.087L126.361 4.06686H127.181L125.888 0.572679H124.971L123.666 4.06686H123.668ZM124.938 2.70062L125.406 1.37316L125.88 2.70062H124.938ZM127.681 4.06846V0.572679H128.444V3.42272H129.86V4.06686L127.681 4.06846ZM111.956 5.57585C112.189 5.57127 112.42 5.62015 112.631 5.7186C112.82 5.80748 112.977 5.94893 113.084 6.12523C113.189 6.313 113.245 6.52376 113.245 6.73798C113.245 6.9522 113.189 7.16296 113.084 7.35073C112.977 7.52587 112.819 7.66637 112.631 7.75497C112.42 7.85298 112.189 7.90157 111.956 7.89691H111.269V9.07004H110.505V5.57425L111.956 5.57585ZM111.269 7.27316H111.885C112.065 7.27316 112.208 7.22492 112.313 7.12842C112.366 7.07827 112.407 7.01759 112.434 6.95042C112.462 6.88326 112.474 6.81117 112.47 6.73898C112.47 6.57265 112.418 6.44124 112.313 6.34474C112.207 6.24825 112.065 6.2 111.885 6.2H111.269V7.27316ZM115.294 5.57425C115.531 5.56971 115.765 5.61855 115.979 5.717C116.17 5.80517 116.331 5.94661 116.44 6.12363C116.551 6.30949 116.608 6.52194 116.603 6.73738C116.607 6.94569 116.551 7.15081 116.44 7.32874C116.333 7.49925 116.177 7.6354 115.991 7.72058L116.694 9.06844H115.849L115.254 7.89531H114.607V9.06844H113.843V5.57425H115.294ZM114.607 7.27157H115.233C115.413 7.27157 115.556 7.22332 115.664 7.12683C115.717 7.0773 115.759 7.01703 115.787 6.95011C115.815 6.88318 115.828 6.81118 115.825 6.73898C115.825 6.57265 115.771 6.44124 115.664 6.34474C115.558 6.24825 115.414 6.2 115.234 6.2H114.608V7.27316L114.607 7.27157ZM120.624 7.32155C120.628 7.6389 120.551 7.95229 120.4 8.23278C120.256 8.49816 120.039 8.71858 119.773 8.86892C119.492 9.01951 119.177 9.09843 118.857 9.09843C118.536 9.09843 118.221 9.01951 117.94 8.86892C117.675 8.71845 117.458 8.49805 117.314 8.23278C117.167 7.95079 117.09 7.63854 117.09 7.32175C117.09 7.00496 117.167 6.6927 117.314 6.41072C117.458 6.14524 117.675 5.92468 117.94 5.77417C118.221 5.62358 118.536 5.54466 118.857 5.54466C119.177 5.54466 119.492 5.62358 119.773 5.77417C120.039 5.92455 120.256 6.14513 120.4 6.41072C120.551 6.69103 120.628 7.00431 120.624 7.32155ZM117.869 7.32155C117.865 7.52427 117.907 7.72529 117.991 7.91051C118.065 8.07522 118.185 8.21613 118.338 8.31714C118.492 8.41349 118.671 8.46466 118.854 8.46466C119.037 8.46466 119.217 8.41349 119.371 8.31714C119.523 8.21613 119.643 8.07522 119.717 7.91051C119.798 7.72424 119.84 7.52393 119.84 7.32155C119.84 7.11916 119.798 6.91885 119.717 6.73258C119.643 6.56787 119.523 6.42696 119.371 6.32595C119.217 6.22961 119.037 6.17843 118.854 6.17843C118.671 6.17843 118.492 6.22961 118.338 6.32595C118.185 6.42696 118.065 6.56787 117.991 6.73258C117.907 6.9178 117.865 7.11882 117.869 7.32155ZM121.258 5.57425H122.496C122.825 5.56783 123.15 5.64438 123.44 5.79656C123.708 5.93844 123.927 6.15351 124.071 6.41551C124.217 6.69613 124.293 7.0066 124.293 7.32155C124.293 7.63649 124.217 7.94697 124.071 8.22758C123.927 8.48938 123.707 8.70429 123.44 8.84613C123.15 8.99851 122.825 9.07508 122.496 9.06844H121.258V5.57425ZM122.496 8.44469C122.818 8.44469 123.069 8.34233 123.247 8.13762C123.425 7.9329 123.514 7.66088 123.514 7.32155C123.514 6.98195 123.425 6.70993 123.247 6.50548C123.069 6.30103 122.818 6.19867 122.496 6.1984H122.024V8.44469H122.496ZM125.671 5.57425V7.60103C125.671 7.88358 125.727 8.09683 125.839 8.24077C125.951 8.38472 126.128 8.45629 126.37 8.45549C126.611 8.45549 126.787 8.38392 126.9 8.24077C127.012 8.09763 127.069 7.88438 127.071 7.60103V5.57425H127.834V7.56105C127.834 8.06058 127.709 8.44163 127.46 8.70419C127.21 8.96675 126.847 9.09803 126.37 9.09803C125.891 9.09803 125.528 8.96661 125.28 8.70379C125.032 8.44096 124.908 8.05991 124.908 7.56065V5.57425H125.671ZM128.45 7.32155C128.45 6.96542 128.521 6.65342 128.661 6.38553C128.796 6.12429 129.007 5.90807 129.267 5.76418C129.53 5.61784 129.84 5.54467 130.197 5.54467C130.455 5.54056 130.712 5.59531 130.945 5.7046C131.16 5.80621 131.344 5.96113 131.479 6.15402C131.618 6.35298 131.702 6.58321 131.724 6.82295H130.961C130.926 6.63918 130.828 6.47262 130.683 6.35114C130.534 6.23363 130.347 6.17247 130.156 6.17881C129.871 6.17881 129.645 6.2837 129.479 6.49348C129.313 6.70326 129.23 6.97942 129.23 7.32195C129.23 7.66154 129.313 7.9369 129.479 8.14801C129.646 8.35913 129.871 8.46482 130.156 8.46508C130.347 8.47142 130.534 8.41026 130.683 8.29275C130.828 8.17127 130.926 8.00472 130.961 7.82094H131.724C131.702 8.06069 131.618 8.29091 131.48 8.48987C131.345 8.68254 131.16 8.8373 130.945 8.93889C130.712 9.04836 130.456 9.10312 130.197 9.09883C129.841 9.09883 129.531 9.02552 129.268 8.87891C129.007 8.73545 128.797 8.51946 128.662 8.25837C128.521 7.99181 128.451 7.67993 128.451 7.32275L128.45 7.32155ZM131.982 5.57425H134.803V6.21919H133.775V9.06924H133.011V6.21919H131.983V5.57425H131.982ZM135.392 5.57425H136.156V9.06844H135.392V5.57425ZM140.324 7.32155C140.329 7.63887 140.252 7.95225 140.101 8.23278C139.957 8.49808 139.74 8.71847 139.474 8.86892C139.193 9.01951 138.878 9.09843 138.558 9.09843C138.238 9.09843 137.922 9.01951 137.641 8.86892C137.376 8.71847 137.159 8.49808 137.015 8.23278C136.868 7.95079 136.791 7.63854 136.791 7.32175C136.791 7.00496 136.868 6.6927 137.015 6.41072C137.159 6.14521 137.376 5.92466 137.641 5.77417C137.922 5.62358 138.238 5.54466 138.558 5.54466C138.878 5.54466 139.193 5.62358 139.474 5.77417C139.74 5.92466 139.957 6.14521 140.101 6.41072C140.252 6.69106 140.329 7.00434 140.324 7.32155ZM137.57 7.32155C137.566 7.52427 137.608 7.72529 137.692 7.91051C137.767 8.07522 137.887 8.21613 138.039 8.31714C138.193 8.41349 138.372 8.46466 138.555 8.46466C138.738 8.46466 138.918 8.41349 139.072 8.31714C139.224 8.21595 139.344 8.07509 139.418 7.91051C139.499 7.72417 139.54 7.52389 139.54 7.32155C139.54 7.1192 139.499 6.91892 139.418 6.73258C139.344 6.56793 139.224 6.42704 139.072 6.32595C138.918 6.22961 138.738 6.17843 138.555 6.17843C138.372 6.17843 138.193 6.22961 138.039 6.32595C137.886 6.42682 137.766 6.56777 137.692 6.73258C137.608 6.9178 137.566 7.11882 137.57 7.32155ZM140.959 9.06844V5.57425H141.653L143.165 7.77576V5.57425H143.918V9.06844H143.221L141.709 6.86733V9.06844H140.959Z" fill="#18464F"/>
</g>
</svg>
