<svg width="32" height="32" viewBox="0 0 32 32" fill="none" xmlns="http://www.w3.org/2000/svg">
<circle opacity="0.05" cx="16" cy="16" r="16" fill="#18464F"/>
<path d="M23.1572 11.8735C23.5 13.21 23.5 16 23.5 16C23.5 16 23.5 18.79 23.1572 20.1265C22.9667 20.8652 22.4095 21.4465 21.7037 21.643C20.422 22 16 22 16 22C16 22 11.5803 22 10.2962 21.643C9.5875 21.4435 9.031 20.863 8.84275 20.1265C8.5 18.79 8.5 16 8.5 16C8.5 16 8.5 13.21 8.84275 11.8735C9.03325 11.1348 9.5905 10.5535 10.2962 10.357C11.5803 10 16 10 16 10C16 10 20.422 10 21.7037 10.357C22.4125 10.5565 22.969 11.137 23.1572 11.8735ZM14.5 18.625L19 16L14.5 13.375V18.625Z" fill="#18464F"/>
</svg>
